<?xml version="1.0" encoding="utf-8" standalone="no"?>
<!DOCTYPE svg PUBLIC "-//W3C//DTD SVG 1.1//EN"
  "http://www.w3.org/Graphics/SVG/1.1/DTD/svg11.dtd">
<svg xmlns:xlink="http://www.w3.org/1999/xlink" width="737.9025pt" height="290.477525pt" viewBox="0 0 737.9025 290.477525" xmlns="http://www.w3.org/2000/svg" version="1.1">
 <metadata>
  <rdf:RDF xmlns:dc="http://purl.org/dc/elements/1.1/" xmlns:cc="http://creativecommons.org/ns#" xmlns:rdf="http://www.w3.org/1999/02/22-rdf-syntax-ns#">
   <cc:Work>
    <dc:type rdf:resource="http://purl.org/dc/dcmitype/StillImage"/>
    <dc:date>2026-03-23T10:36:00.525314</dc:date>
    <dc:format>image/svg+xml</dc:format>
    <dc:creator>
     <cc:Agent>
      <dc:title>Matplotlib v3.10.8, https://matplotlib.org/</dc:title>
     </cc:Agent>
    </dc:creator>
   </cc:Work>
  </rdf:RDF>
 </metadata>
 <defs>
  <style type="text/css">*{stroke-linejoin: round; stroke-linecap: butt}</style>
 </defs>
 <g id="figure_1">
  <g id="patch_1">
   <path d="M 0 290.477525 
L 737.9025 290.477525 
L 737.9025 0 
L 0 0 
z
" style="fill: #ffffff"/>
  </g>
  <g id="axes_1">
   <g id="patch_2">
    <path d="M 61.1025 252 
L 730.7025 252 
L 730.7025 7.2 
L 61.1025 7.2 
z
" style="fill: #ffffff"/>
   </g>
   <g id="FillBetweenPolyCollection_1">
    <defs>
     <path id="mf7276834cb" d="M 51.377357 -105.800895 
L 51.377357 -105.800895 
L 53.768786 -105.800895 
L 56.239929 -105.800895 
L 58.631357 -105.800895 
L 61.1025 -105.800895 
L 63.573643 -105.800895 
L 65.805643 -105.800895 
L 68.276786 -105.800895 
L 70.668214 -105.800895 
L 73.139357 -105.800895 
L 75.530786 -105.800895 
L 78.001929 -105.800895 
L 80.473071 -105.800895 
L 82.8645 -105.800895 
L 85.335643 -105.800895 
L 87.727071 -105.800895 
L 90.198214 -105.800895 
L 92.669357 -105.800895 
L 94.901357 -105.800895 
L 97.3725 -105.800895 
L 99.763929 -105.800895 
L 102.235071 -105.800895 
L 104.6265 -105.800895 
L 107.097643 -105.800895 
L 109.568786 -105.800895 
L 111.960214 -105.800895 
L 114.431357 -105.800895 
L 116.822786 -105.800895 
L 119.293929 -105.800895 
L 121.765071 -105.800895 
L 124.076786 -105.800895 
L 126.547929 -105.800895 
L 128.939357 -105.800895 
L 131.4105 -105.800895 
L 133.801929 -105.800895 
L 136.273071 -105.800895 
L 138.744214 -105.800895 
L 141.135643 -105.800895 
L 143.606786 -105.800895 
L 145.998214 -105.800895 
L 148.469357 -105.800895 
L 150.9405 -105.800895 
L 153.1725 -105.800895 
L 155.643643 -105.800895 
L 158.035071 -105.800895 
L 160.506214 -105.800895 
L 162.897643 -105.800895 
L 165.368786 -105.800895 
L 167.839929 -105.800895 
L 170.231357 -105.800895 
L 172.7025 -105.800895 
L 175.093929 -105.800895 
L 177.565071 -105.800895 
L 180.036214 -105.800895 
L 182.268214 -105.800895 
L 184.739357 -105.800895 
L 187.130786 -105.800895 
L 189.601929 -105.800895 
L 191.993357 -105.800895 
L 194.4645 -105.800895 
L 196.935643 -105.800895 
L 199.327071 -105.800895 
L 201.798214 -105.800895 
L 204.189643 -105.800895 
L 206.660786 -105.800895 
L 209.131929 -105.800895 
L 211.363929 -105.800895 
L 213.835071 -105.800895 
L 216.2265 -105.800895 
L 218.697643 -105.800895 
L 221.089071 -105.800895 
L 223.560214 -105.800895 
L 226.031357 -105.800895 
L 228.422786 -105.800895 
L 230.893929 -105.800895 
L 233.285357 -105.800895 
L 235.7565 -105.800895 
L 238.227643 -105.800895 
L 240.539357 -105.800895 
L 243.0105 -105.800895 
L 245.401929 -105.800895 
L 247.873071 -105.800895 
L 250.2645 -105.800895 
L 252.735643 -105.800895 
L 255.206786 -105.800895 
L 257.598214 -105.800895 
L 260.069357 -105.800895 
L 262.460786 -105.800895 
L 264.931929 -105.800895 
L 267.403071 -105.800895 
L 269.635071 -105.800895 
L 272.106214 -105.800895 
L 274.497643 -105.800895 
L 276.968786 -105.800895 
L 279.360214 -105.800895 
L 281.831357 -105.800895 
L 284.3025 -105.800895 
L 286.693929 -105.800895 
L 289.165071 -105.800895 
L 291.5565 -105.800895 
L 294.027643 -105.800895 
L 296.498786 -105.800895 
L 298.730786 -105.800895 
L 301.201929 -105.800895 
L 303.593357 -105.800895 
L 306.0645 -105.800895 
L 308.455929 -105.800895 
L 310.927071 -105.800895 
L 313.398214 -105.800895 
L 315.789643 -105.800895 
L 318.260786 -105.800895 
L 320.652214 -105.800895 
L 323.123357 -105.800895 
L 325.5945 -105.800895 
L 327.8265 -105.800895 
L 330.297643 -105.800895 
L 332.689071 -105.800895 
L 335.160214 -105.800895 
L 337.551643 -105.800895 
L 340.022786 -105.800895 
L 342.493929 -105.800895 
L 344.885357 -105.800895 
L 347.3565 -105.800895 
L 349.747929 -105.800895 
L 352.219071 -105.800895 
L 354.690214 -105.800895 
L 357.001929 -105.800895 
L 359.473071 -105.800895 
L 361.8645 -105.800895 
L 364.335643 -105.800895 
L 366.727071 -105.800895 
L 369.198214 -105.800895 
L 371.669357 -105.800895 
L 374.060786 -105.800895 
L 376.531929 -105.800895 
L 378.923357 -105.800895 
L 381.3945 -105.800895 
L 383.865643 -105.800895 
L 386.097643 -105.800895 
L 388.568786 -105.800895 
L 390.960214 -105.800895 
L 393.431357 -105.800895 
L 395.822786 -105.800895 
L 398.293929 -105.800895 
L 400.765071 -105.800895 
L 403.1565 -105.800895 
L 405.627643 -105.800895 
L 408.019071 -105.800895 
L 410.490214 -105.800895 
L 412.961357 -105.800895 
L 415.193357 -105.800895 
L 417.6645 -105.800895 
L 420.055929 -105.800895 
L 422.527071 -105.800895 
L 424.9185 -105.800895 
L 427.389643 -105.800895 
L 429.860786 -105.800895 
L 432.252214 -105.800895 
L 434.723357 -105.800895 
L 437.114786 -105.800895 
L 439.585929 -105.800895 
L 442.057071 -105.800895 
L 444.289071 -105.800895 
L 446.760214 -105.800895 
L 449.151643 -105.800895 
L 451.622786 -105.800895 
L 454.014214 -105.800895 
L 456.485357 -105.800895 
L 458.9565 -105.800895 
L 461.347929 -105.800895 
L 463.819071 -105.800895 
L 466.2105 -105.800895 
L 468.681643 -105.800895 
L 471.152786 -105.800895 
L 473.4645 -105.800895 
L 475.935643 -105.800895 
L 478.327071 -105.800895 
L 480.798214 -105.800895 
L 483.189643 -105.800895 
L 485.660786 -105.800895 
L 488.131929 -105.800895 
L 490.523357 -105.800895 
L 492.9945 -105.800895 
L 495.385929 -105.800895 
L 497.857071 -105.800895 
L 500.328214 -105.800895 
L 502.560214 -105.800895 
L 505.031357 -105.800895 
L 507.422786 -105.800895 
L 509.893929 -105.800895 
L 512.285357 -105.800895 
L 514.7565 -105.800895 
L 517.227643 -105.800895 
L 519.619071 -105.800895 
L 522.090214 -105.800895 
L 524.481643 -105.800895 
L 526.952786 -105.800895 
L 529.423929 -105.800895 
L 531.655929 -105.800895 
L 534.127071 -105.800895 
L 536.5185 -105.800895 
L 538.989643 -105.800895 
L 541.381071 -105.800895 
L 543.852214 -105.800895 
L 546.323357 -105.800895 
L 548.714786 -105.800895 
L 551.185929 -105.800895 
L 553.577357 -105.800895 
L 556.0485 -105.800895 
L 558.519643 -105.800895 
L 560.751643 -105.800895 
L 563.222786 -105.800895 
L 565.614214 -105.800895 
L 568.085357 -105.800895 
L 570.476786 -105.800895 
L 572.947929 -105.800895 
L 575.419071 -105.800895 
L 577.8105 -105.800895 
L 580.281643 -105.800895 
L 582.673071 -105.800895 
L 585.144214 -105.800895 
L 587.615357 -105.800895 
L 589.927071 -105.800895 
L 592.398214 -105.800895 
L 594.789643 -105.800895 
L 597.260786 -105.800895 
L 599.652214 -105.800895 
L 602.123357 -105.800895 
L 604.5945 -105.800895 
L 606.985929 -105.800895 
L 609.457071 -105.800895 
L 611.8485 -105.800895 
L 614.319643 -105.800895 
L 616.790786 -105.800895 
L 619.022786 -105.800895 
L 621.493929 -105.800895 
L 623.885357 -105.800895 
L 626.3565 -105.800895 
L 628.747929 -105.800895 
L 631.219071 -105.800895 
L 633.690214 -105.800895 
L 636.081643 -105.800895 
L 638.552786 -105.800895 
L 640.944214 -105.800895 
L 643.415357 -105.800895 
L 645.8865 -105.800895 
L 648.1185 -105.800895 
L 650.589643 -105.800895 
L 652.981071 -105.800895 
L 655.452214 -105.800895 
L 657.843643 -105.800895 
L 660.314786 -105.800895 
L 662.785929 -105.800895 
L 665.177357 -105.800895 
L 667.6485 -105.800895 
L 670.039929 -105.800895 
L 672.511071 -105.800895 
L 674.982214 -105.800895 
L 677.214214 -105.800895 
L 679.685357 -105.800895 
L 682.076786 -105.800895 
L 684.547929 -105.800895 
L 686.939357 -105.800895 
L 689.4105 -105.800895 
L 691.881643 -105.800895 
L 694.273071 -105.800895 
L 696.744214 -105.800895 
L 699.135643 -105.800895 
L 699.135643 -137.192354 
L 699.135643 -137.192354 
L 696.744214 -135.150927 
L 694.273071 -137.323842 
L 691.881643 -164.999825 
L 689.4105 -148.282725 
L 686.939357 -168.696342 
L 684.547929 -137.716582 
L 682.076786 -204.321022 
L 679.685357 -147.121413 
L 677.214214 -162.55351 
L 674.982214 -150.332278 
L 672.511071 -151.23201 
L 670.039929 -128.430517 
L 667.6485 -131.288532 
L 665.177357 -135.809515 
L 662.785929 -131.863484 
L 660.314786 -147.70449 
L 657.843643 -136.395383 
L 655.452214 -154.970304 
L 652.981071 -135.093719 
L 650.589643 -132.584861 
L 648.1185 -152.324705 
L 645.8865 -144.981575 
L 643.415357 -169.867339 
L 640.944214 -147.383404 
L 638.552786 -144.843193 
L 636.081643 -142.048706 
L 633.690214 -143.236611 
L 631.219071 -141.804854 
L 628.747929 -149.99059 
L 626.3565 -148.763042 
L 623.885357 -147.517436 
L 621.493929 -162.780865 
L 619.022786 -174.315192 
L 616.790786 -159.311374 
L 614.319643 -234.137253 
L 611.8485 -215.63374 
L 609.457071 -164.79455 
L 606.985929 -154.459947 
L 604.5945 -134.322685 
L 602.123357 -141.827507 
L 599.652214 -132.995576 
L 597.260786 -158.04451 
L 594.789643 -167.583702 
L 592.398214 -159.423491 
L 589.927071 -147.168443 
L 587.615357 -144.046304 
L 585.144214 -151.387875 
L 582.673071 -148.264094 
L 580.281643 -139.701376 
L 577.8105 -145.112324 
L 575.419071 -230.693945 
L 572.947929 -137.70189 
L 570.476786 -138.445429 
L 568.085357 -137.697048 
L 565.614214 -132.603821 
L 563.222786 -126.22986 
L 560.751643 -124.477509 
L 558.519643 -129.687285 
L 556.0485 -130.919841 
L 553.577357 -136.800189 
L 551.185929 -130.987472 
L 548.714786 -134.318252 
L 546.323357 -131.48363 
L 543.852214 -128.987987 
L 541.381071 -133.57693 
L 538.989643 -140.548004 
L 536.5185 -140.684663 
L 534.127071 -142.676843 
L 531.655929 -168.046371 
L 529.423929 -142.981597 
L 526.952786 -157.474729 
L 524.481643 -180.403852 
L 522.090214 -152.996508 
L 519.619071 -143.489655 
L 517.227643 -172.716079 
L 514.7565 -157.17408 
L 512.285357 -155.964424 
L 509.893929 -178.257776 
L 507.422786 -164.696139 
L 505.031357 -144.749871 
L 502.560214 -162.513457 
L 500.328214 -159.000054 
L 497.857071 -148.529203 
L 495.385929 -167.185709 
L 492.9945 -182.744287 
L 490.523357 -180.662806 
L 488.131929 -165.320994 
L 485.660786 -132.058417 
L 483.189643 -140.53955 
L 480.798214 -147.903117 
L 478.327071 -153.437017 
L 475.935643 -160.796645 
L 473.4645 -165.134268 
L 471.152786 -167.839701 
L 468.681643 -140.623351 
L 466.2105 -126.881964 
L 463.819071 -124.753207 
L 461.347929 -128.437904 
L 458.9565 -131.299612 
L 456.485357 -135.69789 
L 454.014214 -122.729672 
L 451.622786 -131.973631 
L 449.151643 -149.53777 
L 446.760214 -143.9616 
L 444.289071 -126.704185 
L 442.057071 -132.417013 
L 439.585929 -129.259662 
L 437.114786 -134.094592 
L 434.723357 -130.033241 
L 432.252214 -129.591829 
L 429.860786 -134.051747 
L 427.389643 -131.168535 
L 424.9185 -138.561486 
L 422.527071 -128.760222 
L 420.055929 -132.196143 
L 417.6645 -137.543891 
L 415.193357 -130.241389 
L 412.961357 -128.939807 
L 410.490214 -137.465754 
L 408.019071 -129.783234 
L 405.627643 -124.858922 
L 403.1565 -132.160522 
L 400.765071 -135.811239 
L 398.293929 -135.410291 
L 395.822786 -128.492732 
L 393.431357 -137.237989 
L 390.960214 -136.109344 
L 388.568786 -148.566138 
L 386.097643 -274.826268 
L 383.865643 -212.6554 
L 381.3945 -158.179609 
L 378.923357 -156.602247 
L 376.531929 -168.412929 
L 374.060786 -155.612477 
L 371.669357 -187.747803 
L 369.198214 -143.233902 
L 366.727071 -154.086577 
L 364.335643 -147.209072 
L 361.8645 -169.65164 
L 359.473071 -142.364293 
L 357.001929 -153.948687 
L 354.690214 -157.943965 
L 352.219071 -158.786735 
L 349.747929 -160.546555 
L 347.3565 -141.013546 
L 344.885357 -145.82771 
L 342.493929 -159.967336 
L 340.022786 -150.503902 
L 337.551643 -164.14696 
L 335.160214 -169.62595 
L 332.689071 -148.100185 
L 330.297643 -154.132787 
L 327.8265 -146.431553 
L 325.5945 -153.273355 
L 323.123357 -165.20428 
L 320.652214 -159.570246 
L 318.260786 -182.003539 
L 315.789643 -183.308979 
L 313.398214 -165.135499 
L 310.927071 -147.304856 
L 308.455929 -150.897298 
L 306.0645 -177.568244 
L 303.593357 -155.08751 
L 301.201929 -169.11231 
L 298.730786 -155.343017 
L 296.498786 -142.332529 
L 294.027643 -140.450086 
L 291.5565 -217.618288 
L 289.165071 -145.525009 
L 286.693929 -147.972144 
L 284.3025 -153.201291 
L 281.831357 -144.25913 
L 279.360214 -143.470367 
L 276.968786 -151.380077 
L 274.497643 -168.816749 
L 272.106214 -149.817982 
L 269.635071 -172.419369 
L 267.403071 -157.192958 
L 264.931929 -153.718214 
L 262.460786 -151.482099 
L 260.069357 -154.619013 
L 257.598214 -151.959543 
L 255.206786 -167.759675 
L 252.735643 -149.930263 
L 250.2645 -150.109356 
L 247.873071 -156.667581 
L 245.401929 -150.207521 
L 243.0105 -139.388005 
L 240.539357 -154.070162 
L 238.227643 -150.58959 
L 235.7565 -150.087195 
L 233.285357 -146.971704 
L 230.893929 -146.352595 
L 228.422786 -154.2463 
L 226.031357 -146.54088 
L 223.560214 -139.462449 
L 221.089071 -132.196225 
L 218.697643 -137.808509 
L 216.2265 -132.231026 
L 213.835071 -153.943106 
L 211.363929 -143.680075 
L 209.131929 -137.275417 
L 206.660786 -129.424966 
L 204.189643 -128.120265 
L 201.798214 -123.853639 
L 199.327071 -126.2828 
L 196.935643 -121.82477 
L 194.4645 -137.812448 
L 191.993357 -121.040685 
L 189.601929 -114.869044 
L 187.130786 -113.437616 
L 184.739357 -113.564753 
L 182.268214 -119.138871 
L 180.036214 -112.669454 
L 177.565071 -111.104814 
L 175.093929 -109.387592 
L 172.7025 -110.707231 
L 170.231357 -108.082645 
L 167.839929 -108.927631 
L 165.368786 -107.135965 
L 162.897643 -107.100097 
L 160.506214 -106.421481 
L 158.035071 -106.659177 
L 155.643643 -106.418609 
L 153.1725 -106.414177 
L 150.9405 -105.882808 
L 148.469357 -105.947157 
L 145.998214 -105.985569 
L 143.606786 -107.07966 
L 141.135643 -106.199626 
L 138.744214 -106.391031 
L 136.273071 -106.03342 
L 133.801929 -106.520713 
L 131.4105 -105.806804 
L 128.939357 -105.80385 
L 126.547929 -105.811072 
L 124.076786 -105.809595 
L 121.765071 -105.80188 
L 119.293929 -105.800895 
L 116.822786 -105.843985 
L 114.431357 -105.800977 
L 111.960214 -105.800895 
L 109.568786 -105.803275 
L 107.097643 -105.805573 
L 104.6265 -106.28195 
L 102.235071 -106.047783 
L 99.763929 -105.800895 
L 97.3725 -105.800895 
L 94.901357 -105.800895 
L 92.669357 -105.801059 
L 90.198214 -105.800977 
L 87.727071 -105.806722 
L 85.335643 -105.800895 
L 82.8645 -105.800895 
L 80.473071 -105.800895 
L 78.001929 -105.800895 
L 75.530786 -105.800895 
L 73.139357 -105.800895 
L 70.668214 -105.800895 
L 68.276786 -105.800895 
L 65.805643 -105.800895 
L 63.573643 -105.800895 
L 61.1025 -105.800895 
L 58.631357 -105.800895 
L 56.239929 -105.800895 
L 53.768786 -105.800895 
L 51.377357 -105.800895 
z
" style="stroke: #dd8452; stroke-opacity: 0.7"/>
    </defs>
    <g clip-path="url(#p9066a931bf)">
     <use xlink:href="#mf7276834cb" x="0" y="290.477525" style="fill: #dd8452; fill-opacity: 0.7; stroke: #dd8452; stroke-opacity: 0.7"/>
    </g>
   </g>
   <g id="FillBetweenPolyCollection_2">
    <defs>
     <path id="m92e1935dfc" d="M 51.377357 -105.79991 
L 51.377357 -105.800895 
L 53.768786 -105.800895 
L 56.239929 -105.800895 
L 58.631357 -105.800895 
L 61.1025 -105.800895 
L 63.573643 -105.800895 
L 65.805643 -105.800895 
L 68.276786 -105.800895 
L 70.668214 -105.800895 
L 73.139357 -105.800895 
L 75.530786 -105.800895 
L 78.001929 -105.800895 
L 80.473071 -105.800895 
L 82.8645 -105.800895 
L 85.335643 -105.800895 
L 87.727071 -105.800895 
L 90.198214 -105.800895 
L 92.669357 -105.800895 
L 94.901357 -105.800895 
L 97.3725 -105.800895 
L 99.763929 -105.800895 
L 102.235071 -105.800895 
L 104.6265 -105.800895 
L 107.097643 -105.800895 
L 109.568786 -105.800895 
L 111.960214 -105.800895 
L 114.431357 -105.800895 
L 116.822786 -105.800895 
L 119.293929 -105.800895 
L 121.765071 -105.800895 
L 124.076786 -105.800895 
L 126.547929 -105.800895 
L 128.939357 -105.800895 
L 131.4105 -105.800895 
L 133.801929 -105.800895 
L 136.273071 -105.800895 
L 138.744214 -105.800895 
L 141.135643 -105.800895 
L 143.606786 -105.800895 
L 145.998214 -105.800895 
L 148.469357 -105.800895 
L 150.9405 -105.800895 
L 153.1725 -105.800895 
L 155.643643 -105.800895 
L 158.035071 -105.800895 
L 160.506214 -105.800895 
L 162.897643 -105.800895 
L 165.368786 -105.800895 
L 167.839929 -105.800895 
L 170.231357 -105.800895 
L 172.7025 -105.800895 
L 175.093929 -105.800895 
L 177.565071 -105.800895 
L 180.036214 -105.800895 
L 182.268214 -105.800895 
L 184.739357 -105.800895 
L 187.130786 -105.800895 
L 189.601929 -105.800895 
L 191.993357 -105.800895 
L 194.4645 -105.800895 
L 196.935643 -105.800895 
L 199.327071 -105.800895 
L 201.798214 -105.800895 
L 204.189643 -105.800895 
L 206.660786 -105.800895 
L 209.131929 -105.800895 
L 211.363929 -105.800895 
L 213.835071 -105.800895 
L 216.2265 -105.800895 
L 218.697643 -105.800895 
L 221.089071 -105.800895 
L 223.560214 -105.800895 
L 226.031357 -105.800895 
L 228.422786 -105.800895 
L 230.893929 -105.800895 
L 233.285357 -105.800895 
L 235.7565 -105.800895 
L 238.227643 -105.800895 
L 240.539357 -105.800895 
L 243.0105 -105.800895 
L 245.401929 -105.800895 
L 247.873071 -105.800895 
L 250.2645 -105.800895 
L 252.735643 -105.800895 
L 255.206786 -105.800895 
L 257.598214 -105.800895 
L 260.069357 -105.800895 
L 262.460786 -105.800895 
L 264.931929 -105.800895 
L 267.403071 -105.800895 
L 269.635071 -105.800895 
L 272.106214 -105.800895 
L 274.497643 -105.800895 
L 276.968786 -105.800895 
L 279.360214 -105.800895 
L 281.831357 -105.800895 
L 284.3025 -105.800895 
L 286.693929 -105.800895 
L 289.165071 -105.800895 
L 291.5565 -105.800895 
L 294.027643 -105.800895 
L 296.498786 -105.800895 
L 298.730786 -105.800895 
L 301.201929 -105.800895 
L 303.593357 -105.800895 
L 306.0645 -105.800895 
L 308.455929 -105.800895 
L 310.927071 -105.800895 
L 313.398214 -105.800895 
L 315.789643 -105.800895 
L 318.260786 -105.800895 
L 320.652214 -105.800895 
L 323.123357 -105.800895 
L 325.5945 -105.800895 
L 327.8265 -105.800895 
L 330.297643 -105.800895 
L 332.689071 -105.800895 
L 335.160214 -105.800895 
L 337.551643 -105.800895 
L 340.022786 -105.800895 
L 342.493929 -105.800895 
L 344.885357 -105.800895 
L 347.3565 -105.800895 
L 349.747929 -105.800895 
L 352.219071 -105.800895 
L 354.690214 -105.800895 
L 357.001929 -105.800895 
L 359.473071 -105.800895 
L 361.8645 -105.800895 
L 364.335643 -105.800895 
L 366.727071 -105.800895 
L 369.198214 -105.800895 
L 371.669357 -105.800895 
L 374.060786 -105.800895 
L 376.531929 -105.800895 
L 378.923357 -105.800895 
L 381.3945 -105.800895 
L 383.865643 -105.800895 
L 386.097643 -105.800895 
L 388.568786 -105.800895 
L 390.960214 -105.800895 
L 393.431357 -105.800895 
L 395.822786 -105.800895 
L 398.293929 -105.800895 
L 400.765071 -105.800895 
L 403.1565 -105.800895 
L 405.627643 -105.800895 
L 408.019071 -105.800895 
L 410.490214 -105.800895 
L 412.961357 -105.800895 
L 415.193357 -105.800895 
L 417.6645 -105.800895 
L 420.055929 -105.800895 
L 422.527071 -105.800895 
L 424.9185 -105.800895 
L 427.389643 -105.800895 
L 429.860786 -105.800895 
L 432.252214 -105.800895 
L 434.723357 -105.800895 
L 437.114786 -105.800895 
L 439.585929 -105.800895 
L 442.057071 -105.800895 
L 444.289071 -105.800895 
L 446.760214 -105.800895 
L 449.151643 -105.800895 
L 451.622786 -105.800895 
L 454.014214 -105.800895 
L 456.485357 -105.800895 
L 458.9565 -105.800895 
L 461.347929 -105.800895 
L 463.819071 -105.800895 
L 466.2105 -105.800895 
L 468.681643 -105.800895 
L 471.152786 -105.800895 
L 473.4645 -105.800895 
L 475.935643 -105.800895 
L 478.327071 -105.800895 
L 480.798214 -105.800895 
L 483.189643 -105.800895 
L 485.660786 -105.800895 
L 488.131929 -105.800895 
L 490.523357 -105.800895 
L 492.9945 -105.800895 
L 495.385929 -105.800895 
L 497.857071 -105.800895 
L 500.328214 -105.800895 
L 502.560214 -105.800895 
L 505.031357 -105.800895 
L 507.422786 -105.800895 
L 509.893929 -105.800895 
L 512.285357 -105.800895 
L 514.7565 -105.800895 
L 517.227643 -105.800895 
L 519.619071 -105.800895 
L 522.090214 -105.800895 
L 524.481643 -105.800895 
L 526.952786 -105.800895 
L 529.423929 -105.800895 
L 531.655929 -105.800895 
L 534.127071 -105.800895 
L 536.5185 -105.800895 
L 538.989643 -105.800895 
L 541.381071 -105.800895 
L 543.852214 -105.800895 
L 546.323357 -105.800895 
L 548.714786 -105.800895 
L 551.185929 -105.800895 
L 553.577357 -105.800895 
L 556.0485 -105.800895 
L 558.519643 -105.800895 
L 560.751643 -105.800895 
L 563.222786 -105.800895 
L 565.614214 -105.800895 
L 568.085357 -105.800895 
L 570.476786 -105.800895 
L 572.947929 -105.800895 
L 575.419071 -105.800895 
L 577.8105 -105.800895 
L 580.281643 -105.800895 
L 582.673071 -105.800895 
L 585.144214 -105.800895 
L 587.615357 -105.800895 
L 589.927071 -105.800895 
L 592.398214 -105.800895 
L 594.789643 -105.800895 
L 597.260786 -105.800895 
L 599.652214 -105.800895 
L 602.123357 -105.800895 
L 604.5945 -105.800895 
L 606.985929 -105.800895 
L 609.457071 -105.800895 
L 611.8485 -105.800895 
L 614.319643 -105.800895 
L 616.790786 -105.800895 
L 619.022786 -105.800895 
L 621.493929 -105.800895 
L 623.885357 -105.800895 
L 626.3565 -105.800895 
L 628.747929 -105.800895 
L 631.219071 -105.800895 
L 633.690214 -105.800895 
L 636.081643 -105.800895 
L 638.552786 -105.800895 
L 640.944214 -105.800895 
L 643.415357 -105.800895 
L 645.8865 -105.800895 
L 648.1185 -105.800895 
L 650.589643 -105.800895 
L 652.981071 -105.800895 
L 655.452214 -105.800895 
L 657.843643 -105.800895 
L 660.314786 -105.800895 
L 662.785929 -105.800895 
L 665.177357 -105.800895 
L 667.6485 -105.800895 
L 670.039929 -105.800895 
L 672.511071 -105.800895 
L 674.982214 -105.800895 
L 677.214214 -105.800895 
L 679.685357 -105.800895 
L 682.076786 -105.800895 
L 684.547929 -105.800895 
L 686.939357 -105.800895 
L 689.4105 -105.800895 
L 691.881643 -105.800895 
L 694.273071 -105.800895 
L 696.744214 -105.800895 
L 699.135643 -105.800895 
L 699.135643 -79.598692 
L 699.135643 -79.598692 
L 696.744214 -77.850774 
L 694.273071 -70.005494 
L 691.881643 -76.142006 
L 689.4105 -72.217232 
L 686.939357 -66.113469 
L 684.547929 -63.862416 
L 682.076786 -67.412261 
L 679.685357 -64.137211 
L 677.214214 -69.601756 
L 674.982214 -73.345959 
L 672.511071 -65.403172 
L 670.039929 -52.571038 
L 667.6485 -74.361584 
L 665.177357 -73.283991 
L 662.785929 -71.867747 
L 660.314786 -74.63482 
L 657.843643 -67.918268 
L 655.452214 -66.644674 
L 652.981071 -70.68214 
L 650.589643 -75.740483 
L 648.1185 -73.722612 
L 645.8865 -73.505518 
L 643.415357 -70.410299 
L 640.944214 -71.722634 
L 638.552786 -72.733991 
L 636.081643 -70.940519 
L 633.690214 -74.764502 
L 631.219071 -73.101123 
L 628.747929 -74.289028 
L 626.3565 -71.596727 
L 623.885357 -71.233207 
L 621.493929 -70.277827 
L 619.022786 -72.808353 
L 616.790786 -58.098782 
L 614.319643 -64.777332 
L 611.8485 -71.717873 
L 609.457071 -72.332715 
L 606.985929 -73.285386 
L 604.5945 -63.362483 
L 602.123357 -71.400234 
L 599.652214 -67.586757 
L 597.260786 -65.860179 
L 594.789643 -69.155009 
L 592.398214 -69.978326 
L 589.927071 -72.147548 
L 587.615357 -78.530045 
L 585.144214 -76.180746 
L 582.673071 -79.620115 
L 580.281643 -80.461161 
L 577.8105 -76.820949 
L 575.419071 -79.294596 
L 572.947929 -78.040454 
L 570.476786 -78.746073 
L 568.085357 -80.741209 
L 565.614214 -76.109749 
L 563.222786 -77.732582 
L 560.751643 -74.567762 
L 558.519643 -78.669249 
L 556.0485 -76.244602 
L 553.577357 -76.871016 
L 551.185929 -79.373308 
L 548.714786 -77.003818 
L 546.323357 -76.594662 
L 543.852214 -75.185887 
L 541.381071 -78.506407 
L 538.989643 -76.767845 
L 536.5185 -71.386609 
L 534.127071 -74.906496 
L 531.655929 -73.226044 
L 529.423929 -79.515876 
L 526.952786 -75.849646 
L 524.481643 -78.353333 
L 522.090214 -78.669331 
L 519.619071 -77.440059 
L 517.227643 -76.161212 
L 514.7565 -73.465546 
L 512.285357 -79.916824 
L 509.893929 -82.295261 
L 507.422786 -79.098021 
L 505.031357 -79.963034 
L 502.560214 -79.067077 
L 500.328214 -78.809847 
L 497.857071 -74.245773 
L 495.385929 -67.623938 
L 492.9945 -77.357817 
L 490.523357 -78.176785 
L 488.131929 -78.877233 
L 485.660786 -78.570181 
L 483.189643 -80.075808 
L 480.798214 -79.502416 
L 478.327071 -79.6298 
L 475.935643 -81.249842 
L 473.4645 -78.480389 
L 471.152786 -78.734828 
L 468.681643 -76.089886 
L 466.2105 -78.225785 
L 463.819071 -70.035616 
L 461.347929 -71.412628 
L 458.9565 -73.9576 
L 456.485357 -73.992482 
L 454.014214 -77.64517 
L 451.622786 -77.081545 
L 449.151643 -76.979276 
L 446.760214 -76.911727 
L 444.289071 -76.91936 
L 442.057071 -77.938596 
L 439.585929 -72.951496 
L 437.114786 -77.143349 
L 434.723357 -81.7808 
L 432.252214 -74.992923 
L 429.860786 -74.98094 
L 427.389643 -72.272798 
L 424.9185 -74.266128 
L 422.527071 -74.353212 
L 420.055929 -74.296661 
L 417.6645 -74.409517 
L 415.193357 -72.110367 
L 412.961357 -76.871919 
L 410.490214 -74.944497 
L 408.019071 -64.028295 
L 405.627643 -78.233008 
L 403.1565 -76.612719 
L 400.765071 -80.58559 
L 398.293929 -77.133171 
L 395.822786 -77.05963 
L 393.431357 -75.407331 
L 390.960214 -74.306018 
L 388.568786 -73.921896 
L 386.097643 -73.681081 
L 383.865643 -76.030052 
L 381.3945 -73.149056 
L 378.923357 -75.431052 
L 376.531929 -73.250914 
L 374.060786 -71.467538 
L 371.669357 -70.615985 
L 369.198214 -66.674139 
L 366.727071 -69.527558 
L 364.335643 -72.706002 
L 361.8645 -53.716181 
L 359.473071 -61.008095 
L 357.001929 -62.260267 
L 354.690214 -68.592533 
L 352.219071 -68.187399 
L 349.747929 -69.980543 
L 347.3565 -70.300808 
L 344.885357 -67.371961 
L 342.493929 -68.97961 
L 340.022786 -67.151173 
L 337.551643 -66.208269 
L 335.160214 -68.488048 
L 332.689071 -65.876758 
L 330.297643 -69.332378 
L 327.8265 -65.00206 
L 325.5945 -62.139449 
L 323.123357 -59.590209 
L 320.652214 -65.431242 
L 318.260786 -65.737637 
L 315.789643 -63.173213 
L 313.398214 -66.885078 
L 310.927071 -64.25491 
L 308.455929 -66.363805 
L 306.0645 -67.902345 
L 303.593357 -66.404187 
L 301.201929 -64.919983 
L 298.730786 -62.798612 
L 296.498786 -64.064409 
L 294.027643 -63.788136 
L 291.5565 -68.827356 
L 289.165071 -67.629766 
L 286.693929 -63.133323 
L 284.3025 -62.820937 
L 281.831357 -61.222892 
L 279.360214 -63.486256 
L 276.968786 -60.73051 
L 274.497643 -60.324063 
L 272.106214 -60.022675 
L 269.635071 -52.765315 
L 267.403071 -60.094903 
L 264.931929 -55.902065 
L 262.460786 -60.91822 
L 260.069357 -63.328175 
L 257.598214 -58.485613 
L 255.206786 -53.459607 
L 252.735643 -52.071269 
L 250.2645 -51.08273 
L 247.873071 -51.09381 
L 245.401929 -54.73985 
L 243.0105 -50.687528 
L 240.539357 -48.241869 
L 238.227643 -52.285327 
L 235.7565 -48.802376 
L 233.285357 -56.471681 
L 230.893929 -58.327121 
L 228.422786 -53.50516 
L 226.031357 -53.691312 
L 223.560214 -45.514194 
L 221.089071 -47.970111 
L 218.697643 -47.098286 
L 216.2265 -42.533391 
L 213.835071 -45.107582 
L 211.363929 -41.683398 
L 209.131929 -49.507009 
L 206.660786 -51.234573 
L 204.189643 -59.549827 
L 201.798214 -63.628086 
L 199.327071 -63.938338 
L 196.935643 -68.011754 
L 194.4645 -65.445934 
L 191.993357 -72.357338 
L 189.601929 -75.733096 
L 187.130786 -78.957258 
L 184.739357 -83.072944 
L 182.268214 -82.679137 
L 180.036214 -87.712775 
L 177.565071 -88.398367 
L 175.093929 -92.384535 
L 172.7025 -96.134237 
L 170.231357 -97.954548 
L 167.839929 -99.653057 
L 165.368786 -99.609227 
L 162.897643 -100.022733 
L 160.506214 -101.888351 
L 158.035071 -102.645842 
L 155.643643 -103.015765 
L 153.1725 -103.884389 
L 150.9405 -104.213519 
L 148.469357 -104.197678 
L 145.998214 -104.035411 
L 143.606786 -104.316526 
L 141.135643 -104.651976 
L 138.744214 -104.853476 
L 136.273071 -104.929562 
L 133.801929 -105.063184 
L 131.4105 -105.0915 
L 128.939357 -105.288814 
L 126.547929 -105.221183 
L 124.076786 -105.286516 
L 121.765071 -105.468892 
L 119.293929 -105.586509 
L 116.822786 -105.666042 
L 114.431357 -105.67466 
L 111.960214 -105.697888 
L 109.568786 -105.700022 
L 107.097643 -105.718571 
L 104.6265 -105.743523 
L 102.235071 -105.746395 
L 99.763929 -105.747052 
L 97.3725 -105.742948 
L 94.901357 -105.770116 
L 92.669357 -105.772906 
L 90.198214 -105.772742 
L 87.727071 -105.765848 
L 85.335643 -105.775369 
L 82.8645 -105.693784 
L 80.473071 -105.757558 
L 78.001929 -105.762565 
L 75.530786 -105.786695 
L 73.139357 -105.785875 
L 70.668214 -105.800484 
L 68.276786 -105.797776 
L 65.805643 -105.799992 
L 63.573643 -105.799417 
L 61.1025 -105.800813 
L 58.631357 -105.800895 
L 56.239929 -105.800895 
L 53.768786 -105.799582 
L 51.377357 -105.79991 
z
" style="stroke: #4c72b0; stroke-opacity: 0.7"/>
    </defs>
    <g clip-path="url(#p9066a931bf)">
     <use xlink:href="#m92e1935dfc" x="0" y="290.477525" style="fill: #4c72b0; fill-opacity: 0.7; stroke: #4c72b0; stroke-opacity: 0.7"/>
    </g>
   </g>
   <g id="matplotlib.axis_1">
    <g id="xtick_1">
     <g id="line2d_1">
      <defs>
       <path id="m8ff666d159" d="M 0 0 
L 0 3.5 
" style="stroke: #000000; stroke-width: 0.8"/>
      </defs>
      <g>
       <use xlink:href="#m8ff666d159" x="119.293929" y="252" style="stroke: #000000; stroke-width: 0.8"/>
      </g>
     </g>
     <g id="text_1">
      <!-- 2004 -->
      <g transform="translate(102.028286 270.467163) rotate(-20) scale(0.08 -0.08)">
       <defs>
        <path id="ArialMT-32" d="M 3222 541 
L 3222 0 
L 194 0 
Q 188 203 259 391 
Q 375 700 629 1000 
Q 884 1300 1366 1694 
Q 2113 2306 2375 2664 
Q 2638 3022 2638 3341 
Q 2638 3675 2398 3904 
Q 2159 4134 1775 4134 
Q 1369 4134 1125 3890 
Q 881 3647 878 3216 
L 300 3275 
Q 359 3922 746 4261 
Q 1134 4600 1788 4600 
Q 2447 4600 2831 4234 
Q 3216 3869 3216 3328 
Q 3216 3053 3103 2787 
Q 2991 2522 2730 2228 
Q 2469 1934 1863 1422 
Q 1356 997 1212 845 
Q 1069 694 975 541 
L 3222 541 
z
" transform="scale(0.015625)"/>
        <path id="ArialMT-30" d="M 266 2259 
Q 266 3072 433 3567 
Q 600 4063 929 4331 
Q 1259 4600 1759 4600 
Q 2128 4600 2406 4451 
Q 2684 4303 2865 4023 
Q 3047 3744 3150 3342 
Q 3253 2941 3253 2259 
Q 3253 1453 3087 958 
Q 2922 463 2592 192 
Q 2263 -78 1759 -78 
Q 1097 -78 719 397 
Q 266 969 266 2259 
z
M 844 2259 
Q 844 1131 1108 757 
Q 1372 384 1759 384 
Q 2147 384 2411 759 
Q 2675 1134 2675 2259 
Q 2675 3391 2411 3762 
Q 2147 4134 1753 4134 
Q 1366 4134 1134 3806 
Q 844 3388 844 2259 
z
" transform="scale(0.015625)"/>
        <path id="ArialMT-34" d="M 2069 0 
L 2069 1097 
L 81 1097 
L 81 1613 
L 2172 4581 
L 2631 4581 
L 2631 1613 
L 3250 1613 
L 3250 1097 
L 2631 1097 
L 2631 0 
L 2069 0 
z
M 2069 1613 
L 2069 3678 
L 634 1613 
L 2069 1613 
z
" transform="scale(0.015625)"/>
       </defs>
       <use xlink:href="#ArialMT-32"/>
       <use xlink:href="#ArialMT-30" transform="translate(55.615234 0)"/>
       <use xlink:href="#ArialMT-30" transform="translate(111.230469 0)"/>
       <use xlink:href="#ArialMT-34" transform="translate(166.845703 0)"/>
      </g>
     </g>
    </g>
    <g id="xtick_2">
     <g id="line2d_2">
      <g>
       <use xlink:href="#m8ff666d159" x="235.7565" y="252" style="stroke: #000000; stroke-width: 0.8"/>
      </g>
     </g>
     <g id="text_2">
      <!-- 2008 -->
      <g transform="translate(218.490858 270.467163) rotate(-20) scale(0.08 -0.08)">
       <defs>
        <path id="ArialMT-38" d="M 1131 2484 
Q 781 2613 612 2850 
Q 444 3088 444 3419 
Q 444 3919 803 4259 
Q 1163 4600 1759 4600 
Q 2359 4600 2725 4251 
Q 3091 3903 3091 3403 
Q 3091 3084 2923 2848 
Q 2756 2613 2416 2484 
Q 2838 2347 3058 2040 
Q 3278 1734 3278 1309 
Q 3278 722 2862 322 
Q 2447 -78 1769 -78 
Q 1091 -78 675 323 
Q 259 725 259 1325 
Q 259 1772 486 2073 
Q 713 2375 1131 2484 
z
M 1019 3438 
Q 1019 3113 1228 2906 
Q 1438 2700 1772 2700 
Q 2097 2700 2305 2904 
Q 2513 3109 2513 3406 
Q 2513 3716 2298 3927 
Q 2084 4138 1766 4138 
Q 1444 4138 1231 3931 
Q 1019 3725 1019 3438 
z
M 838 1322 
Q 838 1081 952 856 
Q 1066 631 1291 507 
Q 1516 384 1775 384 
Q 2178 384 2440 643 
Q 2703 903 2703 1303 
Q 2703 1709 2433 1975 
Q 2163 2241 1756 2241 
Q 1359 2241 1098 1978 
Q 838 1716 838 1322 
z
" transform="scale(0.015625)"/>
       </defs>
       <use xlink:href="#ArialMT-32"/>
       <use xlink:href="#ArialMT-30" transform="translate(55.615234 0)"/>
       <use xlink:href="#ArialMT-30" transform="translate(111.230469 0)"/>
       <use xlink:href="#ArialMT-38" transform="translate(166.845703 0)"/>
      </g>
     </g>
    </g>
    <g id="xtick_3">
     <g id="line2d_3">
      <g>
       <use xlink:href="#m8ff666d159" x="352.219071" y="252" style="stroke: #000000; stroke-width: 0.8"/>
      </g>
     </g>
     <g id="text_3">
      <!-- 2012 -->
      <g transform="translate(334.953429 270.467163) rotate(-20) scale(0.08 -0.08)">
       <defs>
        <path id="ArialMT-31" d="M 2384 0 
L 1822 0 
L 1822 3584 
Q 1619 3391 1289 3197 
Q 959 3003 697 2906 
L 697 3450 
Q 1169 3672 1522 3987 
Q 1875 4303 2022 4600 
L 2384 4600 
L 2384 0 
z
" transform="scale(0.015625)"/>
       </defs>
       <use xlink:href="#ArialMT-32"/>
       <use xlink:href="#ArialMT-30" transform="translate(55.615234 0)"/>
       <use xlink:href="#ArialMT-31" transform="translate(111.230469 0)"/>
       <use xlink:href="#ArialMT-32" transform="translate(166.845703 0)"/>
      </g>
     </g>
    </g>
    <g id="xtick_4">
     <g id="line2d_4">
      <g>
       <use xlink:href="#m8ff666d159" x="468.681643" y="252" style="stroke: #000000; stroke-width: 0.8"/>
      </g>
     </g>
     <g id="text_4">
      <!-- 2016 -->
      <g transform="translate(451.416001 270.467163) rotate(-20) scale(0.08 -0.08)">
       <defs>
        <path id="ArialMT-36" d="M 3184 3459 
L 2625 3416 
Q 2550 3747 2413 3897 
Q 2184 4138 1850 4138 
Q 1581 4138 1378 3988 
Q 1113 3794 959 3422 
Q 806 3050 800 2363 
Q 1003 2672 1297 2822 
Q 1591 2972 1913 2972 
Q 2475 2972 2870 2558 
Q 3266 2144 3266 1488 
Q 3266 1056 3080 686 
Q 2894 316 2569 119 
Q 2244 -78 1831 -78 
Q 1128 -78 684 439 
Q 241 956 241 2144 
Q 241 3472 731 4075 
Q 1159 4600 1884 4600 
Q 2425 4600 2770 4297 
Q 3116 3994 3184 3459 
z
M 888 1484 
Q 888 1194 1011 928 
Q 1134 663 1356 523 
Q 1578 384 1822 384 
Q 2178 384 2434 671 
Q 2691 959 2691 1453 
Q 2691 1928 2437 2201 
Q 2184 2475 1800 2475 
Q 1419 2475 1153 2201 
Q 888 1928 888 1484 
z
" transform="scale(0.015625)"/>
       </defs>
       <use xlink:href="#ArialMT-32"/>
       <use xlink:href="#ArialMT-30" transform="translate(55.615234 0)"/>
       <use xlink:href="#ArialMT-31" transform="translate(111.230469 0)"/>
       <use xlink:href="#ArialMT-36" transform="translate(166.845703 0)"/>
      </g>
     </g>
    </g>
    <g id="xtick_5">
     <g id="line2d_5">
      <g>
       <use xlink:href="#m8ff666d159" x="585.144214" y="252" style="stroke: #000000; stroke-width: 0.8"/>
      </g>
     </g>
     <g id="text_5">
      <!-- 2020 -->
      <g transform="translate(567.878572 270.467163) rotate(-20) scale(0.08 -0.08)">
       <use xlink:href="#ArialMT-32"/>
       <use xlink:href="#ArialMT-30" transform="translate(55.615234 0)"/>
       <use xlink:href="#ArialMT-32" transform="translate(111.230469 0)"/>
       <use xlink:href="#ArialMT-30" transform="translate(166.845703 0)"/>
      </g>
     </g>
    </g>
    <g id="xtick_6">
     <g id="line2d_6">
      <g>
       <use xlink:href="#m8ff666d159" x="699.135643" y="252" style="stroke: #000000; stroke-width: 0.8"/>
      </g>
     </g>
     <g id="text_6">
      <!-- 2023 -->
      <g transform="translate(681.870001 270.467163) rotate(-20) scale(0.08 -0.08)">
       <defs>
        <path id="ArialMT-33" d="M 269 1209 
L 831 1284 
Q 928 806 1161 595 
Q 1394 384 1728 384 
Q 2125 384 2398 659 
Q 2672 934 2672 1341 
Q 2672 1728 2419 1979 
Q 2166 2231 1775 2231 
Q 1616 2231 1378 2169 
L 1441 2663 
Q 1497 2656 1531 2656 
Q 1891 2656 2178 2843 
Q 2466 3031 2466 3422 
Q 2466 3731 2256 3934 
Q 2047 4138 1716 4138 
Q 1388 4138 1169 3931 
Q 950 3725 888 3313 
L 325 3413 
Q 428 3978 793 4289 
Q 1159 4600 1703 4600 
Q 2078 4600 2393 4439 
Q 2709 4278 2876 4000 
Q 3044 3722 3044 3409 
Q 3044 3113 2884 2869 
Q 2725 2625 2413 2481 
Q 2819 2388 3044 2092 
Q 3269 1797 3269 1353 
Q 3269 753 2831 336 
Q 2394 -81 1725 -81 
Q 1122 -81 723 278 
Q 325 638 269 1209 
z
" transform="scale(0.015625)"/>
       </defs>
       <use xlink:href="#ArialMT-32"/>
       <use xlink:href="#ArialMT-30" transform="translate(55.615234 0)"/>
       <use xlink:href="#ArialMT-32" transform="translate(111.230469 0)"/>
       <use xlink:href="#ArialMT-33" transform="translate(166.845703 0)"/>
      </g>
     </g>
    </g>
    <g id="xtick_7">
     <g id="line2d_7">
      <g>
       <use xlink:href="#m8ff666d159" x="701.606786" y="252" style="stroke: #000000; stroke-width: 0.8"/>
      </g>
     </g>
     <g id="text_7">
      <!-- 2024 -->
      <g transform="translate(684.341143 270.467163) rotate(-20) scale(0.08 -0.08)">
       <use xlink:href="#ArialMT-32"/>
       <use xlink:href="#ArialMT-30" transform="translate(55.615234 0)"/>
       <use xlink:href="#ArialMT-32" transform="translate(111.230469 0)"/>
       <use xlink:href="#ArialMT-34" transform="translate(166.845703 0)"/>
      </g>
     </g>
    </g>
    <g id="text_8">
     <!-- Year -->
     <g transform="translate(387.81875 281.687525) scale(0.08 -0.08)">
      <defs>
       <path id="ArialMT-59" d="M 1784 0 
L 1784 1941 
L 19 4581 
L 756 4581 
L 1659 3200 
Q 1909 2813 2125 2425 
Q 2331 2784 2625 3234 
L 3513 4581 
L 4219 4581 
L 2391 1941 
L 2391 0 
L 1784 0 
z
" transform="scale(0.015625)"/>
       <path id="ArialMT-65" d="M 2694 1069 
L 3275 997 
Q 3138 488 2766 206 
Q 2394 -75 1816 -75 
Q 1088 -75 661 373 
Q 234 822 234 1631 
Q 234 2469 665 2931 
Q 1097 3394 1784 3394 
Q 2450 3394 2872 2941 
Q 3294 2488 3294 1666 
Q 3294 1616 3291 1516 
L 816 1516 
Q 847 969 1125 678 
Q 1403 388 1819 388 
Q 2128 388 2347 550 
Q 2566 713 2694 1069 
z
M 847 1978 
L 2700 1978 
Q 2663 2397 2488 2606 
Q 2219 2931 1791 2931 
Q 1403 2931 1139 2672 
Q 875 2413 847 1978 
z
" transform="scale(0.015625)"/>
       <path id="ArialMT-61" d="M 2588 409 
Q 2275 144 1986 34 
Q 1697 -75 1366 -75 
Q 819 -75 525 192 
Q 231 459 231 875 
Q 231 1119 342 1320 
Q 453 1522 633 1644 
Q 813 1766 1038 1828 
Q 1203 1872 1538 1913 
Q 2219 1994 2541 2106 
Q 2544 2222 2544 2253 
Q 2544 2597 2384 2738 
Q 2169 2928 1744 2928 
Q 1347 2928 1158 2789 
Q 969 2650 878 2297 
L 328 2372 
Q 403 2725 575 2942 
Q 747 3159 1072 3276 
Q 1397 3394 1825 3394 
Q 2250 3394 2515 3294 
Q 2781 3194 2906 3042 
Q 3031 2891 3081 2659 
Q 3109 2516 3109 2141 
L 3109 1391 
Q 3109 606 3145 398 
Q 3181 191 3288 0 
L 2700 0 
Q 2613 175 2588 409 
z
M 2541 1666 
Q 2234 1541 1622 1453 
Q 1275 1403 1131 1340 
Q 988 1278 909 1158 
Q 831 1038 831 891 
Q 831 666 1001 516 
Q 1172 366 1500 366 
Q 1825 366 2078 508 
Q 2331 650 2450 897 
Q 2541 1088 2541 1459 
L 2541 1666 
z
" transform="scale(0.015625)"/>
       <path id="ArialMT-72" d="M 416 0 
L 416 3319 
L 922 3319 
L 922 2816 
Q 1116 3169 1280 3281 
Q 1444 3394 1641 3394 
Q 1925 3394 2219 3213 
L 2025 2691 
Q 1819 2813 1613 2813 
Q 1428 2813 1281 2702 
Q 1134 2591 1072 2394 
Q 978 2094 978 1738 
L 978 0 
L 416 0 
z
" transform="scale(0.015625)"/>
      </defs>
      <use xlink:href="#ArialMT-59"/>
      <use xlink:href="#ArialMT-65" transform="translate(57.574219 0)"/>
      <use xlink:href="#ArialMT-61" transform="translate(113.189453 0)"/>
      <use xlink:href="#ArialMT-72" transform="translate(168.804688 0)"/>
     </g>
    </g>
   </g>
   <g id="matplotlib.axis_2">
    <g id="ytick_1">
     <g id="line2d_8">
      <defs>
       <path id="me64900952f" d="M 0 0 
L -3.5 0 
" style="stroke: #000000; stroke-width: 0.8"/>
      </defs>
      <g>
       <use xlink:href="#me64900952f" x="61.1025" y="225.715294" style="stroke: #000000; stroke-width: 0.8"/>
      </g>
     </g>
     <g id="text_9">
      <!-- 500,000 -->
      <g transform="translate(25.1875 228.578419) scale(0.08 -0.08)">
       <defs>
        <path id="ArialMT-35" d="M 266 1200 
L 856 1250 
Q 922 819 1161 601 
Q 1400 384 1738 384 
Q 2144 384 2425 690 
Q 2706 997 2706 1503 
Q 2706 1984 2436 2262 
Q 2166 2541 1728 2541 
Q 1456 2541 1237 2417 
Q 1019 2294 894 2097 
L 366 2166 
L 809 4519 
L 3088 4519 
L 3088 3981 
L 1259 3981 
L 1013 2750 
Q 1425 3038 1878 3038 
Q 2478 3038 2890 2622 
Q 3303 2206 3303 1553 
Q 3303 931 2941 478 
Q 2500 -78 1738 -78 
Q 1113 -78 717 272 
Q 322 622 266 1200 
z
" transform="scale(0.015625)"/>
        <path id="ArialMT-2c" d="M 569 0 
L 569 641 
L 1209 641 
L 1209 0 
Q 1209 -353 1084 -570 
Q 959 -788 688 -906 
L 531 -666 
Q 709 -588 793 -436 
Q 878 -284 888 0 
L 569 0 
z
" transform="scale(0.015625)"/>
       </defs>
       <use xlink:href="#ArialMT-35"/>
       <use xlink:href="#ArialMT-30" transform="translate(55.615234 0)"/>
       <use xlink:href="#ArialMT-30" transform="translate(111.230469 0)"/>
       <use xlink:href="#ArialMT-2c" transform="translate(166.845703 0)"/>
       <use xlink:href="#ArialMT-30" transform="translate(194.628906 0)"/>
       <use xlink:href="#ArialMT-30" transform="translate(250.244141 0)"/>
       <use xlink:href="#ArialMT-30" transform="translate(305.859375 0)"/>
      </g>
     </g>
    </g>
    <g id="ytick_2">
     <g id="line2d_9">
      <g>
       <use xlink:href="#me64900952f" x="61.1025" y="184.67663" style="stroke: #000000; stroke-width: 0.8"/>
      </g>
     </g>
     <g id="text_10">
      <!-- 0 -->
      <g transform="translate(49.65375 187.539755) scale(0.08 -0.08)">
       <use xlink:href="#ArialMT-30"/>
      </g>
     </g>
    </g>
    <g id="ytick_3">
     <g id="line2d_10">
      <g>
       <use xlink:href="#me64900952f" x="61.1025" y="143.637965" style="stroke: #000000; stroke-width: 0.8"/>
      </g>
     </g>
     <g id="text_11">
      <!-- 500,000 -->
      <g transform="translate(25.1875 146.50109) scale(0.08 -0.08)">
       <use xlink:href="#ArialMT-35"/>
       <use xlink:href="#ArialMT-30" transform="translate(55.615234 0)"/>
       <use xlink:href="#ArialMT-30" transform="translate(111.230469 0)"/>
       <use xlink:href="#ArialMT-2c" transform="translate(166.845703 0)"/>
       <use xlink:href="#ArialMT-30" transform="translate(194.628906 0)"/>
       <use xlink:href="#ArialMT-30" transform="translate(250.244141 0)"/>
       <use xlink:href="#ArialMT-30" transform="translate(305.859375 0)"/>
      </g>
     </g>
    </g>
    <g id="ytick_4">
     <g id="line2d_11">
      <g>
       <use xlink:href="#me64900952f" x="61.1025" y="102.599301" style="stroke: #000000; stroke-width: 0.8"/>
      </g>
     </g>
     <g id="text_12">
      <!-- 1,000,000 -->
      <g transform="translate(18.51625 105.462426) scale(0.08 -0.08)">
       <use xlink:href="#ArialMT-31"/>
       <use xlink:href="#ArialMT-2c" transform="translate(55.615234 0)"/>
       <use xlink:href="#ArialMT-30" transform="translate(83.398438 0)"/>
       <use xlink:href="#ArialMT-30" transform="translate(139.013672 0)"/>
       <use xlink:href="#ArialMT-30" transform="translate(194.628906 0)"/>
       <use xlink:href="#ArialMT-2c" transform="translate(250.244141 0)"/>
       <use xlink:href="#ArialMT-30" transform="translate(278.027344 0)"/>
       <use xlink:href="#ArialMT-30" transform="translate(333.642578 0)"/>
       <use xlink:href="#ArialMT-30" transform="translate(389.257812 0)"/>
      </g>
     </g>
    </g>
    <g id="ytick_5">
     <g id="line2d_12">
      <g>
       <use xlink:href="#me64900952f" x="61.1025" y="61.560636" style="stroke: #000000; stroke-width: 0.8"/>
      </g>
     </g>
     <g id="text_13">
      <!-- 1,500,000 -->
      <g transform="translate(18.51625 64.423761) scale(0.08 -0.08)">
       <use xlink:href="#ArialMT-31"/>
       <use xlink:href="#ArialMT-2c" transform="translate(55.615234 0)"/>
       <use xlink:href="#ArialMT-35" transform="translate(83.398438 0)"/>
       <use xlink:href="#ArialMT-30" transform="translate(139.013672 0)"/>
       <use xlink:href="#ArialMT-30" transform="translate(194.628906 0)"/>
       <use xlink:href="#ArialMT-2c" transform="translate(250.244141 0)"/>
       <use xlink:href="#ArialMT-30" transform="translate(278.027344 0)"/>
       <use xlink:href="#ArialMT-30" transform="translate(333.642578 0)"/>
       <use xlink:href="#ArialMT-30" transform="translate(389.257812 0)"/>
      </g>
     </g>
    </g>
    <g id="ytick_6">
     <g id="line2d_13">
      <g>
       <use xlink:href="#me64900952f" x="61.1025" y="20.521971" style="stroke: #000000; stroke-width: 0.8"/>
      </g>
     </g>
     <g id="text_14">
      <!-- 2,000,000 -->
      <g transform="translate(18.51625 23.385096) scale(0.08 -0.08)">
       <use xlink:href="#ArialMT-32"/>
       <use xlink:href="#ArialMT-2c" transform="translate(55.615234 0)"/>
       <use xlink:href="#ArialMT-30" transform="translate(83.398438 0)"/>
       <use xlink:href="#ArialMT-30" transform="translate(139.013672 0)"/>
       <use xlink:href="#ArialMT-30" transform="translate(194.628906 0)"/>
       <use xlink:href="#ArialMT-2c" transform="translate(250.244141 0)"/>
       <use xlink:href="#ArialMT-30" transform="translate(278.027344 0)"/>
       <use xlink:href="#ArialMT-30" transform="translate(333.642578 0)"/>
       <use xlink:href="#ArialMT-30" transform="translate(389.257812 0)"/>
      </g>
     </g>
    </g>
    <g id="text_15">
     <!-- Number of Edits -->
     <g transform="translate(12.92625 158.27625) rotate(-90) scale(0.08 -0.08)">
      <defs>
       <path id="ArialMT-4e" d="M 488 0 
L 488 4581 
L 1109 4581 
L 3516 984 
L 3516 4581 
L 4097 4581 
L 4097 0 
L 3475 0 
L 1069 3600 
L 1069 0 
L 488 0 
z
" transform="scale(0.015625)"/>
       <path id="ArialMT-75" d="M 2597 0 
L 2597 488 
Q 2209 -75 1544 -75 
Q 1250 -75 995 37 
Q 741 150 617 320 
Q 494 491 444 738 
Q 409 903 409 1263 
L 409 3319 
L 972 3319 
L 972 1478 
Q 972 1038 1006 884 
Q 1059 663 1231 536 
Q 1403 409 1656 409 
Q 1909 409 2131 539 
Q 2353 669 2445 892 
Q 2538 1116 2538 1541 
L 2538 3319 
L 3100 3319 
L 3100 0 
L 2597 0 
z
" transform="scale(0.015625)"/>
       <path id="ArialMT-6d" d="M 422 0 
L 422 3319 
L 925 3319 
L 925 2853 
Q 1081 3097 1340 3245 
Q 1600 3394 1931 3394 
Q 2300 3394 2536 3241 
Q 2772 3088 2869 2813 
Q 3263 3394 3894 3394 
Q 4388 3394 4653 3120 
Q 4919 2847 4919 2278 
L 4919 0 
L 4359 0 
L 4359 2091 
Q 4359 2428 4304 2576 
Q 4250 2725 4106 2815 
Q 3963 2906 3769 2906 
Q 3419 2906 3187 2673 
Q 2956 2441 2956 1928 
L 2956 0 
L 2394 0 
L 2394 2156 
Q 2394 2531 2256 2718 
Q 2119 2906 1806 2906 
Q 1569 2906 1367 2781 
Q 1166 2656 1075 2415 
Q 984 2175 984 1722 
L 984 0 
L 422 0 
z
" transform="scale(0.015625)"/>
       <path id="ArialMT-62" d="M 941 0 
L 419 0 
L 419 4581 
L 981 4581 
L 981 2947 
Q 1338 3394 1891 3394 
Q 2197 3394 2470 3270 
Q 2744 3147 2920 2923 
Q 3097 2700 3197 2384 
Q 3297 2069 3297 1709 
Q 3297 856 2875 390 
Q 2453 -75 1863 -75 
Q 1275 -75 941 416 
L 941 0 
z
M 934 1684 
Q 934 1088 1097 822 
Q 1363 388 1816 388 
Q 2184 388 2453 708 
Q 2722 1028 2722 1663 
Q 2722 2313 2464 2622 
Q 2206 2931 1841 2931 
Q 1472 2931 1203 2611 
Q 934 2291 934 1684 
z
" transform="scale(0.015625)"/>
       <path id="ArialMT-20" transform="scale(0.015625)"/>
       <path id="ArialMT-6f" d="M 213 1659 
Q 213 2581 725 3025 
Q 1153 3394 1769 3394 
Q 2453 3394 2887 2945 
Q 3322 2497 3322 1706 
Q 3322 1066 3130 698 
Q 2938 331 2570 128 
Q 2203 -75 1769 -75 
Q 1072 -75 642 372 
Q 213 819 213 1659 
z
M 791 1659 
Q 791 1022 1069 705 
Q 1347 388 1769 388 
Q 2188 388 2466 706 
Q 2744 1025 2744 1678 
Q 2744 2294 2464 2611 
Q 2184 2928 1769 2928 
Q 1347 2928 1069 2612 
Q 791 2297 791 1659 
z
" transform="scale(0.015625)"/>
       <path id="ArialMT-66" d="M 556 0 
L 556 2881 
L 59 2881 
L 59 3319 
L 556 3319 
L 556 3672 
Q 556 4006 616 4169 
Q 697 4388 901 4523 
Q 1106 4659 1475 4659 
Q 1713 4659 2000 4603 
L 1916 4113 
Q 1741 4144 1584 4144 
Q 1328 4144 1222 4034 
Q 1116 3925 1116 3625 
L 1116 3319 
L 1763 3319 
L 1763 2881 
L 1116 2881 
L 1116 0 
L 556 0 
z
" transform="scale(0.015625)"/>
       <path id="ArialMT-45" d="M 506 0 
L 506 4581 
L 3819 4581 
L 3819 4041 
L 1113 4041 
L 1113 2638 
L 3647 2638 
L 3647 2100 
L 1113 2100 
L 1113 541 
L 3925 541 
L 3925 0 
L 506 0 
z
" transform="scale(0.015625)"/>
       <path id="ArialMT-64" d="M 2575 0 
L 2575 419 
Q 2259 -75 1647 -75 
Q 1250 -75 917 144 
Q 584 363 401 755 
Q 219 1147 219 1656 
Q 219 2153 384 2558 
Q 550 2963 881 3178 
Q 1213 3394 1622 3394 
Q 1922 3394 2156 3267 
Q 2391 3141 2538 2938 
L 2538 4581 
L 3097 4581 
L 3097 0 
L 2575 0 
z
M 797 1656 
Q 797 1019 1065 703 
Q 1334 388 1700 388 
Q 2069 388 2326 689 
Q 2584 991 2584 1609 
Q 2584 2291 2321 2609 
Q 2059 2928 1675 2928 
Q 1300 2928 1048 2622 
Q 797 2316 797 1656 
z
" transform="scale(0.015625)"/>
       <path id="ArialMT-69" d="M 425 3934 
L 425 4581 
L 988 4581 
L 988 3934 
L 425 3934 
z
M 425 0 
L 425 3319 
L 988 3319 
L 988 0 
L 425 0 
z
" transform="scale(0.015625)"/>
       <path id="ArialMT-74" d="M 1650 503 
L 1731 6 
Q 1494 -44 1306 -44 
Q 1000 -44 831 53 
Q 663 150 594 308 
Q 525 466 525 972 
L 525 2881 
L 113 2881 
L 113 3319 
L 525 3319 
L 525 4141 
L 1084 4478 
L 1084 3319 
L 1650 3319 
L 1650 2881 
L 1084 2881 
L 1084 941 
Q 1084 700 1114 631 
Q 1144 563 1211 522 
Q 1278 481 1403 481 
Q 1497 481 1650 503 
z
" transform="scale(0.015625)"/>
       <path id="ArialMT-73" d="M 197 991 
L 753 1078 
Q 800 744 1014 566 
Q 1228 388 1613 388 
Q 2000 388 2187 545 
Q 2375 703 2375 916 
Q 2375 1106 2209 1216 
Q 2094 1291 1634 1406 
Q 1016 1563 777 1677 
Q 538 1791 414 1992 
Q 291 2194 291 2438 
Q 291 2659 392 2848 
Q 494 3038 669 3163 
Q 800 3259 1026 3326 
Q 1253 3394 1513 3394 
Q 1903 3394 2198 3281 
Q 2494 3169 2634 2976 
Q 2775 2784 2828 2463 
L 2278 2388 
Q 2241 2644 2061 2787 
Q 1881 2931 1553 2931 
Q 1166 2931 1000 2803 
Q 834 2675 834 2503 
Q 834 2394 903 2306 
Q 972 2216 1119 2156 
Q 1203 2125 1616 2013 
Q 2213 1853 2448 1751 
Q 2684 1650 2818 1456 
Q 2953 1263 2953 975 
Q 2953 694 2789 445 
Q 2625 197 2315 61 
Q 2006 -75 1616 -75 
Q 969 -75 630 194 
Q 291 463 197 991 
z
" transform="scale(0.015625)"/>
      </defs>
      <use xlink:href="#ArialMT-4e"/>
      <use xlink:href="#ArialMT-75" transform="translate(72.216797 0)"/>
      <use xlink:href="#ArialMT-6d" transform="translate(127.832031 0)"/>
      <use xlink:href="#ArialMT-62" transform="translate(211.132812 0)"/>
      <use xlink:href="#ArialMT-65" transform="translate(266.748047 0)"/>
      <use xlink:href="#ArialMT-72" transform="translate(322.363281 0)"/>
      <use xlink:href="#ArialMT-20" transform="translate(355.664062 0)"/>
      <use xlink:href="#ArialMT-6f" transform="translate(383.447266 0)"/>
      <use xlink:href="#ArialMT-66" transform="translate(439.0625 0)"/>
      <use xlink:href="#ArialMT-20" transform="translate(466.845703 0)"/>
      <use xlink:href="#ArialMT-45" transform="translate(494.628906 0)"/>
      <use xlink:href="#ArialMT-64" transform="translate(561.328125 0)"/>
      <use xlink:href="#ArialMT-69" transform="translate(616.943359 0)"/>
      <use xlink:href="#ArialMT-74" transform="translate(639.160156 0)"/>
      <use xlink:href="#ArialMT-73" transform="translate(666.943359 0)"/>
     </g>
    </g>
   </g>
   <g id="line2d_14">
    <path d="M 51.377357 184.67663 
L 99.763929 184.67663 
L 104.6265 184.195575 
L 107.097643 184.671951 
L 131.4105 184.67072 
L 133.801929 183.956812 
L 136.273071 184.444105 
L 138.744214 184.086494 
L 141.135643 184.277898 
L 143.606786 183.397865 
L 145.998214 184.491956 
L 150.9405 184.594717 
L 153.1725 184.063348 
L 155.643643 184.058916 
L 158.035071 183.818347 
L 160.506214 184.056043 
L 162.897643 183.377428 
L 165.368786 183.34156 
L 167.839929 181.549894 
L 170.231357 182.39488 
L 172.7025 179.770293 
L 175.093929 181.089933 
L 177.565071 179.372711 
L 180.036214 177.808071 
L 182.268214 171.338653 
L 184.739357 176.912771 
L 187.130786 177.039909 
L 189.601929 175.60848 
L 191.993357 169.43684 
L 194.4645 152.665076 
L 196.935643 168.652755 
L 199.327071 164.194725 
L 201.798214 166.623885 
L 204.189643 162.35726 
L 206.660786 161.052558 
L 209.131929 153.202108 
L 211.363929 146.79745 
L 213.835071 136.534419 
L 216.2265 158.246499 
L 218.697643 152.669016 
L 221.089071 158.281299 
L 226.031357 143.936645 
L 228.422786 136.231225 
L 230.893929 144.12493 
L 233.285357 143.505821 
L 235.7565 140.390329 
L 238.227643 139.887934 
L 240.539357 136.407363 
L 243.0105 151.08952 
L 245.401929 140.270004 
L 247.873071 133.809944 
L 250.2645 140.368169 
L 252.735643 140.547261 
L 255.206786 122.717849 
L 257.598214 138.517981 
L 260.069357 135.858512 
L 262.460786 138.995425 
L 264.931929 136.75931 
L 267.403071 133.284567 
L 269.635071 118.058155 
L 272.106214 140.659543 
L 274.497643 121.660775 
L 276.968786 139.097447 
L 279.360214 147.007157 
L 281.831357 146.218394 
L 284.3025 137.276233 
L 286.693929 142.50538 
L 289.165071 144.952516 
L 291.5565 72.859237 
L 294.027643 150.027439 
L 296.498786 148.144996 
L 301.201929 121.365215 
L 303.593357 135.390014 
L 306.0645 112.90928 
L 308.455929 139.580226 
L 310.927071 143.172669 
L 313.398214 125.342026 
L 315.789643 107.168545 
L 318.260786 108.473985 
L 320.652214 130.907279 
L 323.123357 125.273245 
L 325.5945 137.20417 
L 327.8265 144.045972 
L 330.297643 136.344738 
L 332.689071 142.377339 
L 335.160214 120.851575 
L 337.551643 126.330565 
L 340.022786 139.973623 
L 342.493929 130.510189 
L 344.885357 144.649815 
L 347.3565 149.463978 
L 349.747929 129.930969 
L 352.219071 131.690789 
L 354.690214 132.533559 
L 357.001929 136.528837 
L 359.473071 148.113232 
L 361.8645 120.825885 
L 364.335643 143.268453 
L 366.727071 136.390947 
L 369.198214 147.243622 
L 371.669357 102.729721 
L 374.060786 134.865048 
L 376.531929 122.064596 
L 378.923357 133.875277 
L 381.3945 132.297915 
L 383.865643 77.822125 
L 386.097643 15.651256 
L 388.568786 141.911387 
L 390.960214 154.368181 
L 393.431357 153.239535 
L 395.822786 161.984793 
L 398.293929 155.067233 
L 400.765071 154.666286 
L 403.1565 158.317003 
L 405.627643 165.618602 
L 408.019071 160.694291 
L 410.490214 153.011771 
L 412.961357 161.537717 
L 415.193357 160.236135 
L 417.6645 152.933633 
L 420.055929 158.281382 
L 422.527071 161.717303 
L 424.9185 151.916038 
L 427.389643 159.30899 
L 429.860786 156.425777 
L 432.252214 160.885695 
L 434.723357 160.444283 
L 437.114786 156.382933 
L 439.585929 161.217862 
L 442.057071 158.060511 
L 444.289071 163.77334 
L 446.760214 146.515925 
L 449.151643 140.939755 
L 451.622786 158.503893 
L 454.014214 167.747852 
L 456.485357 154.779634 
L 458.9565 159.177912 
L 461.347929 162.03962 
L 463.819071 165.724318 
L 466.2105 163.59556 
L 468.681643 149.854174 
L 471.152786 122.637824 
L 473.4645 125.343257 
L 475.935643 129.68088 
L 478.327071 137.040507 
L 480.798214 142.574407 
L 483.189643 149.937975 
L 485.660786 158.419107 
L 488.131929 125.156531 
L 490.523357 109.814719 
L 492.9945 107.733238 
L 495.385929 123.291816 
L 497.857071 141.948321 
L 500.328214 131.47747 
L 502.560214 127.964068 
L 505.031357 145.727654 
L 507.422786 125.781386 
L 509.893929 112.219748 
L 512.285357 134.5131 
L 514.7565 133.303445 
L 517.227643 117.761446 
L 519.619071 146.987869 
L 522.090214 137.481016 
L 524.481643 110.073673 
L 526.952786 133.002795 
L 529.423929 147.495928 
L 531.655929 122.431153 
L 534.127071 147.800681 
L 536.5185 149.792862 
L 538.989643 149.929521 
L 541.381071 156.900595 
L 543.852214 161.489538 
L 546.323357 158.993895 
L 548.714786 156.159272 
L 551.185929 159.490052 
L 553.577357 153.677336 
L 556.0485 159.557684 
L 558.519643 160.790239 
L 560.751643 166.000016 
L 563.222786 164.247665 
L 565.614214 157.873703 
L 568.085357 152.780477 
L 570.476786 152.032096 
L 572.947929 152.775634 
L 575.419071 59.78358 
L 577.8105 145.365201 
L 580.281643 150.776148 
L 582.673071 142.213431 
L 585.144214 139.08965 
L 587.615357 146.431221 
L 589.927071 143.309081 
L 592.398214 131.054033 
L 594.789643 122.893823 
L 597.260786 132.433014 
L 599.652214 157.481948 
L 602.123357 148.650017 
L 604.5945 156.15484 
L 606.985929 136.017578 
L 609.457071 125.682975 
L 611.8485 74.843785 
L 614.319643 56.340272 
L 616.790786 131.166151 
L 619.022786 116.162333 
L 621.493929 127.69666 
L 623.885357 142.960089 
L 628.747929 140.486934 
L 631.219071 148.672671 
L 633.690214 147.240914 
L 636.081643 148.428819 
L 640.944214 143.094121 
L 643.415357 120.610186 
L 645.8865 145.49595 
L 648.1185 138.152819 
L 650.589643 157.892663 
L 652.981071 155.383806 
L 655.452214 135.507221 
L 657.843643 154.082141 
L 660.314786 142.773034 
L 662.785929 158.614041 
L 665.177357 154.668009 
L 667.6485 159.188993 
L 670.039929 162.047007 
L 672.511071 139.245515 
L 674.982214 140.145247 
L 677.214214 127.924014 
L 679.685357 143.356112 
L 682.076786 86.156503 
L 684.547929 152.760942 
L 686.939357 121.781183 
L 689.4105 142.1948 
L 691.881643 125.477699 
L 694.273071 153.153682 
L 696.744214 155.326598 
L 699.135643 153.28517 
L 699.135643 153.28517 
" clip-path="url(#p9066a931bf)" style="fill: none; stroke: #dd8452; stroke-width: 1.5; stroke-linecap: square"/>
   </g>
   <g id="line2d_15">
    <path d="M 51.377357 184.677615 
L 111.960214 184.779637 
L 119.293929 184.891016 
L 126.547929 185.256342 
L 128.939357 185.18871 
L 131.4105 185.386024 
L 136.273071 185.547963 
L 138.744214 185.624048 
L 141.135643 185.825548 
L 145.998214 186.442113 
L 148.469357 186.279846 
L 150.9405 186.264005 
L 153.1725 186.593135 
L 155.643643 187.46176 
L 158.035071 187.831682 
L 160.506214 188.589174 
L 162.897643 190.454792 
L 165.368786 190.868297 
L 167.839929 190.824468 
L 172.7025 194.343287 
L 177.565071 202.079158 
L 180.036214 202.76475 
L 182.268214 207.798388 
L 184.739357 207.404581 
L 187.130786 211.520267 
L 189.601929 214.744428 
L 191.993357 218.120187 
L 194.4645 225.03159 
L 196.935643 222.465771 
L 199.327071 226.539187 
L 201.798214 226.849439 
L 204.189643 230.927697 
L 206.660786 239.242952 
L 209.131929 240.970515 
L 211.363929 248.794126 
L 213.835071 245.369942 
L 216.2265 247.944133 
L 218.697643 243.379239 
L 221.089071 242.507413 
L 223.560214 244.963331 
L 226.031357 236.786213 
L 228.422786 236.972364 
L 230.893929 232.150403 
L 233.285357 234.005843 
L 235.7565 241.675149 
L 238.227643 238.192198 
L 240.539357 242.235655 
L 243.0105 239.789997 
L 245.401929 235.737675 
L 247.873071 239.383714 
L 250.2645 239.394795 
L 252.735643 238.406255 
L 255.206786 237.017917 
L 257.598214 231.991912 
L 260.069357 227.14935 
L 262.460786 229.559304 
L 264.931929 234.57546 
L 267.403071 230.382622 
L 269.635071 237.712209 
L 272.106214 230.45485 
L 276.968786 229.747015 
L 279.360214 226.991269 
L 281.831357 229.254633 
L 284.3025 227.656587 
L 286.693929 227.344201 
L 289.165071 222.847759 
L 291.5565 221.650168 
L 294.027643 226.689388 
L 296.498786 226.413116 
L 298.730786 227.678912 
L 301.201929 225.557542 
L 306.0645 222.57518 
L 308.455929 224.11372 
L 310.927071 226.222614 
L 313.398214 223.592446 
L 315.789643 227.304312 
L 318.260786 224.739887 
L 320.652214 225.046282 
L 323.123357 230.887315 
L 325.5945 228.338076 
L 327.8265 225.475465 
L 330.297643 221.145147 
L 332.689071 224.600766 
L 335.160214 221.989476 
L 337.551643 224.269256 
L 340.022786 223.326352 
L 342.493929 221.497915 
L 344.885357 223.105564 
L 347.3565 220.176716 
L 349.747929 220.496982 
L 352.219071 222.290125 
L 354.690214 221.884992 
L 357.001929 228.217258 
L 359.473071 229.469429 
L 361.8645 236.761344 
L 364.335643 217.771522 
L 366.727071 220.949967 
L 369.198214 223.803385 
L 371.669357 219.861539 
L 374.060786 219.009987 
L 376.531929 217.226611 
L 378.923357 215.046473 
L 381.3945 217.328469 
L 383.865643 214.447472 
L 386.097643 216.796444 
L 388.568786 216.555629 
L 390.960214 216.171507 
L 393.431357 215.070193 
L 395.822786 213.417894 
L 398.293929 213.344353 
L 400.765071 209.891934 
L 403.1565 213.864806 
L 405.627643 212.244517 
L 408.019071 226.44923 
L 410.490214 215.533027 
L 412.961357 213.605605 
L 415.193357 218.367157 
L 417.6645 216.068007 
L 420.055929 216.180864 
L 422.527071 216.124312 
L 424.9185 216.211396 
L 427.389643 218.204726 
L 429.860786 215.496585 
L 432.252214 215.484602 
L 434.723357 208.696724 
L 437.114786 213.334176 
L 439.585929 217.526029 
L 442.057071 212.538928 
L 444.289071 213.558165 
L 449.151643 213.498248 
L 451.622786 213.39598 
L 454.014214 212.832355 
L 456.485357 216.485042 
L 458.9565 216.519925 
L 461.347929 219.064897 
L 463.819071 220.441908 
L 466.2105 212.25174 
L 468.681643 214.387638 
L 471.152786 211.742696 
L 473.4645 211.997136 
L 475.935643 209.227683 
L 478.327071 210.847725 
L 480.798214 210.975109 
L 483.189643 210.401717 
L 485.660786 211.907343 
L 488.131929 211.600292 
L 492.9945 213.119708 
L 495.385929 222.853586 
L 497.857071 216.231752 
L 500.328214 211.667677 
L 502.560214 211.410447 
L 505.031357 210.514491 
L 507.422786 211.379504 
L 509.893929 208.182264 
L 512.285357 210.560701 
L 514.7565 217.011979 
L 517.227643 214.316313 
L 522.090214 211.808194 
L 524.481643 212.124192 
L 526.952786 214.627878 
L 529.423929 210.961648 
L 531.655929 217.25148 
L 534.127071 215.571029 
L 536.5185 219.090915 
L 538.989643 213.709679 
L 541.381071 211.971117 
L 543.852214 215.291638 
L 546.323357 213.882863 
L 548.714786 213.473707 
L 551.185929 211.104217 
L 553.577357 213.606508 
L 556.0485 214.232922 
L 558.519643 211.808276 
L 560.751643 215.909762 
L 563.222786 212.744942 
L 565.614214 214.367775 
L 568.085357 209.736316 
L 570.476786 211.731452 
L 572.947929 212.43707 
L 575.419071 211.182929 
L 577.8105 213.656575 
L 580.281643 210.016364 
L 582.673071 210.85741 
L 585.144214 214.296778 
L 587.615357 211.947479 
L 589.927071 218.329976 
L 592.398214 220.499198 
L 594.789643 221.322516 
L 597.260786 224.617346 
L 599.652214 222.890767 
L 602.123357 219.07729 
L 604.5945 227.115041 
L 606.985929 217.192138 
L 609.457071 218.14481 
L 611.8485 218.759651 
L 616.790786 232.378742 
L 619.022786 217.669172 
L 621.493929 220.199698 
L 623.885357 219.244318 
L 626.3565 218.880797 
L 628.747929 216.188497 
L 631.219071 217.376402 
L 633.690214 215.713023 
L 636.081643 219.537006 
L 638.552786 217.743534 
L 640.944214 218.754891 
L 643.415357 220.067225 
L 645.8865 216.972007 
L 648.1185 216.754912 
L 650.589643 214.737041 
L 652.981071 219.795385 
L 655.452214 223.832851 
L 657.843643 222.559257 
L 660.314786 215.842705 
L 662.785929 218.609778 
L 665.177357 217.193534 
L 667.6485 216.11594 
L 670.039929 237.906486 
L 672.511071 225.074353 
L 674.982214 217.131565 
L 677.214214 220.875769 
L 679.685357 226.340313 
L 682.076786 223.065264 
L 684.547929 226.615108 
L 686.939357 224.364055 
L 689.4105 218.260293 
L 691.881643 214.335519 
L 694.273071 220.472031 
L 696.744214 212.626751 
L 699.135643 210.878832 
L 699.135643 210.878832 
" clip-path="url(#p9066a931bf)" style="fill: none; stroke: #4c72b0; stroke-width: 1.5; stroke-linecap: square"/>
   </g>
   <g id="line2d_16">
    <path d="M 61.1025 184.67663 
L 730.7025 184.67663 
" clip-path="url(#p9066a931bf)" style="fill: none; stroke: #000000; stroke-width: 0.8; stroke-linecap: square"/>
   </g>
   <g id="patch_3">
    <path d="M 61.1025 252 
L 61.1025 7.2 
" style="fill: none; stroke: #000000; stroke-width: 0.8; stroke-linejoin: miter; stroke-linecap: square"/>
   </g>
   <g id="patch_4">
    <path d="M 61.1025 252 
L 730.7025 252 
" style="fill: none; stroke: #000000; stroke-width: 0.8; stroke-linejoin: miter; stroke-linecap: square"/>
   </g>
   <g id="legend_1">
    <g id="patch_5">
     <path d="M 68.3025 20.12625 
L 84.3025 20.12625 
L 84.3025 14.52625 
L 68.3025 14.52625 
z
" style="fill: #dd8452; fill-opacity: 0.7; stroke: #000000; stroke-width: 0.6; stroke-linejoin: miter"/>
    </g>
    <g id="text_16">
     <!-- Bot Edits -->
     <g transform="translate(90.7025 20.12625) scale(0.08 -0.08)">
      <defs>
       <path id="ArialMT-42" d="M 469 0 
L 469 4581 
L 2188 4581 
Q 2713 4581 3030 4442 
Q 3347 4303 3526 4014 
Q 3706 3725 3706 3409 
Q 3706 3116 3547 2856 
Q 3388 2597 3066 2438 
Q 3481 2316 3704 2022 
Q 3928 1728 3928 1328 
Q 3928 1006 3792 729 
Q 3656 453 3456 303 
Q 3256 153 2954 76 
Q 2653 0 2216 0 
L 469 0 
z
M 1075 2656 
L 2066 2656 
Q 2469 2656 2644 2709 
Q 2875 2778 2992 2937 
Q 3109 3097 3109 3338 
Q 3109 3566 3000 3739 
Q 2891 3913 2687 3977 
Q 2484 4041 1991 4041 
L 1075 4041 
L 1075 2656 
z
M 1075 541 
L 2216 541 
Q 2509 541 2628 563 
Q 2838 600 2978 687 
Q 3119 775 3209 942 
Q 3300 1109 3300 1328 
Q 3300 1584 3169 1773 
Q 3038 1963 2805 2039 
Q 2572 2116 2134 2116 
L 1075 2116 
L 1075 541 
z
" transform="scale(0.015625)"/>
      </defs>
      <use xlink:href="#ArialMT-42"/>
      <use xlink:href="#ArialMT-6f" transform="translate(66.699219 0)"/>
      <use xlink:href="#ArialMT-74" transform="translate(122.314453 0)"/>
      <use xlink:href="#ArialMT-20" transform="translate(150.097656 0)"/>
      <use xlink:href="#ArialMT-45" transform="translate(177.880859 0)"/>
      <use xlink:href="#ArialMT-64" transform="translate(244.580078 0)"/>
      <use xlink:href="#ArialMT-69" transform="translate(300.195312 0)"/>
      <use xlink:href="#ArialMT-74" transform="translate(322.412109 0)"/>
      <use xlink:href="#ArialMT-73" transform="translate(350.195312 0)"/>
     </g>
    </g>
    <g id="patch_6">
     <path d="M 68.3025 31.4425 
L 84.3025 31.4425 
L 84.3025 25.8425 
L 68.3025 25.8425 
z
" style="fill: #4c72b0; fill-opacity: 0.7; stroke: #000000; stroke-width: 0.6; stroke-linejoin: miter"/>
    </g>
    <g id="text_17">
     <!-- Human Edits -->
     <g transform="translate(90.7025 31.4425) scale(0.08 -0.08)">
      <defs>
       <path id="ArialMT-48" d="M 513 0 
L 513 4581 
L 1119 4581 
L 1119 2700 
L 3500 2700 
L 3500 4581 
L 4106 4581 
L 4106 0 
L 3500 0 
L 3500 2159 
L 1119 2159 
L 1119 0 
L 513 0 
z
" transform="scale(0.015625)"/>
       <path id="ArialMT-6e" d="M 422 0 
L 422 3319 
L 928 3319 
L 928 2847 
Q 1294 3394 1984 3394 
Q 2284 3394 2536 3286 
Q 2788 3178 2913 3003 
Q 3038 2828 3088 2588 
Q 3119 2431 3119 2041 
L 3119 0 
L 2556 0 
L 2556 2019 
Q 2556 2363 2490 2533 
Q 2425 2703 2258 2804 
Q 2091 2906 1866 2906 
Q 1506 2906 1245 2678 
Q 984 2450 984 1813 
L 984 0 
L 422 0 
z
" transform="scale(0.015625)"/>
      </defs>
      <use xlink:href="#ArialMT-48"/>
      <use xlink:href="#ArialMT-75" transform="translate(72.216797 0)"/>
      <use xlink:href="#ArialMT-6d" transform="translate(127.832031 0)"/>
      <use xlink:href="#ArialMT-61" transform="translate(211.132812 0)"/>
      <use xlink:href="#ArialMT-6e" transform="translate(266.748047 0)"/>
      <use xlink:href="#ArialMT-20" transform="translate(322.363281 0)"/>
      <use xlink:href="#ArialMT-45" transform="translate(350.146484 0)"/>
      <use xlink:href="#ArialMT-64" transform="translate(416.845703 0)"/>
      <use xlink:href="#ArialMT-69" transform="translate(472.460938 0)"/>
      <use xlink:href="#ArialMT-74" transform="translate(494.677734 0)"/>
      <use xlink:href="#ArialMT-73" transform="translate(522.460938 0)"/>
     </g>
    </g>
   </g>
  </g>
 </g>
 <defs>
  <clipPath id="p9066a931bf">
   <rect x="61.1025" y="7.2" width="669.6" height="244.8"/>
  </clipPath>
 </defs>
</svg>
